<svg width="24" height="24" viewBox="0 0 24 24" fill="none" xmlns="http://www.w3.org/2000/svg">
<path d="M12.8999 16.0497H11.1002C10.3533 16.0497 9.75042 16.6526 9.75042 17.3995V20.549H14.2497V17.3995C14.2497 16.6526 13.6468 16.0497 12.8999 16.0497Z" stroke="#7B7B8F" stroke-width="1.61976" stroke-linecap="round" stroke-linejoin="round"/>
<path d="M10.2633 3.73954L4.02726 8.73378C3.32536 9.2917 2.87543 10.4705 3.02841 11.3524L4.22523 18.5153C4.44119 19.7931 5.66501 20.828 6.96081 20.828H17.0393C18.3261 20.828 19.5589 19.7841 19.7749 18.5153L20.9717 11.3524C21.1157 10.4705 20.6657 9.2917 19.9728 8.73378L13.7368 3.74853C12.7739 2.97465 11.2172 2.97465 10.2633 3.73954Z" stroke="#7B7B8F" stroke-width="1.61976" stroke-linecap="round" stroke-linejoin="round"/>
</svg>
