<svg width="16" height="20" viewBox="0 0 16 20" fill="none" xmlns="http://www.w3.org/2000/svg">
<path d="M2.67627 7.45508L3.42627 7.45514V7.45508H2.67627ZM2.67609 9.43284L1.92609 9.43277V9.43284H2.67609ZM2.16615 11.2758L2.80868 11.6626L2.81036 11.6598L2.16615 11.2758ZM1.13732 12.9845L0.494798 12.5977L0.494685 12.5979L1.13732 12.9845ZM2.10353 15.6058L1.86308 16.3162L1.86586 16.3172L2.10353 15.6058ZM13.9753 15.6058L13.7399 14.8937L13.7376 14.8945L13.9753 15.6058ZM14.9415 12.9845L15.5846 12.5987L15.584 12.5977L14.9415 12.9845ZM13.9127 11.2758L13.2629 11.6506L13.2701 11.6626L13.9127 11.2758ZM13.4117 9.43284L12.6617 9.43277V9.43284H13.4117ZM13.4119 7.45508L14.1619 7.45514V7.45508H13.4119ZM9.69913 2.33817L9.49002 3.05843C9.76447 3.13811 10.0603 3.0549 10.253 2.84385C10.4457 2.6328 10.5017 2.33059 10.3974 2.06452L9.69913 2.33817ZM8.84028 2.15925L8.74726 2.90346L8.75004 2.9038L8.84028 2.15925ZM6.38899 2.33817L5.6907 2.06452C5.58641 2.33064 5.64244 2.63289 5.83519 2.84395C6.02794 3.055 6.32389 3.13815 6.59835 3.05836L6.38899 2.33817ZM8.04406 1.33728C4.66862 1.33728 1.92627 4.07963 1.92627 7.45508H3.42627C3.42627 4.90806 5.49704 2.83728 8.04406 2.83728V1.33728ZM1.92627 7.45501L1.92609 9.43277L3.42609 9.43291L3.42627 7.45514L1.92627 7.45501ZM1.92609 9.43284C1.92609 9.61534 1.88437 9.8888 1.80245 10.1839C1.7206 10.4788 1.61532 10.7351 1.52194 10.8917L2.81036 11.6598C2.99432 11.3513 3.14401 10.959 3.24779 10.5851C3.35151 10.2115 3.42609 9.79607 3.42609 9.43284H1.92609ZM1.52362 10.8889L0.494798 12.5977L1.77985 13.3714L2.80868 11.6626L1.52362 10.8889ZM0.494685 12.5979C0.071053 13.3019 -0.0193533 14.096 0.242764 14.8039C0.504555 15.5109 1.08916 16.0543 1.86308 16.3162L2.34397 14.8954C1.95487 14.7637 1.73878 14.5243 1.64943 14.283C1.5604 14.0426 1.56841 13.7228 1.77996 13.3712L0.494685 12.5979ZM1.86586 16.3172C5.87598 17.657 10.2028 17.657 14.213 16.3172L13.7376 14.8945C10.036 16.1312 6.0428 16.1312 2.34119 14.8945L1.86586 16.3172ZM14.2107 16.3179C15.7523 15.8083 16.4208 13.9923 15.5846 12.5987L14.2984 13.3704C14.6431 13.9449 14.3633 14.6876 13.7399 14.8937L14.2107 16.3179ZM15.584 12.5977L14.5552 10.8889L13.2701 11.6626L14.299 13.3714L15.584 12.5977ZM14.5623 10.901C14.4702 10.7414 14.366 10.482 14.2848 10.1861C14.2035 9.88949 14.1617 9.61557 14.1617 9.43284H12.6617C12.6617 9.79584 12.7362 10.2108 12.8382 10.5829C12.9405 10.9558 13.0867 11.345 13.263 11.6506L14.5623 10.901ZM14.1617 9.43291L14.1619 7.45514L12.6619 7.45501L12.6617 9.43277L14.1617 9.43291ZM14.1619 7.45508C14.1619 4.08858 11.4106 1.33728 8.04406 1.33728V2.83728C10.5821 2.83728 12.6619 4.917 12.6619 7.45508H14.1619ZM9.90824 1.61791C9.59831 1.52794 9.272 1.45609 8.93053 1.4147L8.75004 2.9038C8.99902 2.93398 9.24528 2.98738 9.49002 3.05843L9.90824 1.61791ZM8.93331 1.41504C7.97887 1.29573 7.05258 1.36423 6.17964 1.61799L6.59835 3.05836C7.26418 2.86481 7.984 2.80805 8.74726 2.90346L8.93331 1.41504ZM7.08729 2.61183C7.23728 2.22908 7.60971 1.96094 8.04406 1.96094V0.460938C6.97543 0.460938 6.05959 1.12321 5.6907 2.06452L7.08729 2.61183ZM8.04406 1.96094C8.47841 1.96094 8.85084 2.22908 9.00084 2.61183L10.3974 2.06452C10.0285 1.12321 9.1127 0.460938 8.04406 0.460938V1.96094ZM9.97796 15.9529C9.97796 17.0149 9.10599 17.8868 8.04406 17.8868V19.3868C9.93442 19.3868 11.478 17.8433 11.478 15.9529H9.97796ZM8.04406 17.8868C7.51794 17.8868 7.0264 17.6678 6.67777 17.3192L5.61711 18.3799C6.23469 18.9975 7.10298 19.3868 8.04406 19.3868V17.8868ZM6.67777 17.3192C6.32914 16.9706 6.11016 16.479 6.11016 15.9529H4.61016C4.61016 16.894 4.99953 17.7623 5.61711 18.3799L6.67777 17.3192Z" fill="#292D32"/>
</svg>
