<svg width="15" height="15" viewBox="0 0 15 15" fill="none" xmlns="http://www.w3.org/2000/svg">
<path d="M13.6524 3.79094C13.6379 3.79094 13.616 3.79094 13.5942 3.79094C9.74312 3.40511 5.89933 3.25951 2.09194 3.64535L0.606837 3.79094C0.301081 3.82006 0.0317241 3.60167 0.00260452 3.29591C-0.0265151 2.99016 0.191882 2.72808 0.490358 2.69896L1.97546 2.55336C5.84837 2.16025 9.77224 2.31312 13.7034 2.69896C14.0019 2.72808 14.2203 2.99744 14.1911 3.29591C14.1693 3.57983 13.9291 3.79094 13.6524 3.79094Z" fill="#999999"/>
<path d="M4.55255 3.25412C4.52343 3.25412 4.49431 3.25412 4.45791 3.24684C4.16671 3.19588 3.96287 2.91196 4.01383 2.62077L4.17399 1.6671C4.29047 0.968227 4.45063 0 6.14684 0H8.05418C9.75768 0 9.91783 1.00463 10.027 1.67438L10.1872 2.62077C10.2381 2.91924 10.0343 3.20316 9.74312 3.24684C9.44464 3.2978 9.16072 3.09396 9.11704 2.80276L8.95689 1.85638C8.85497 1.22302 8.83313 1.09927 8.06146 1.09927H6.15412C5.38245 1.09927 5.36789 1.20118 5.2587 1.8491L5.09126 2.79548C5.04758 3.06484 4.81462 3.25412 4.55255 3.25412Z" fill="#999999"/>
<path d="M9.43736 15H4.76366C2.22298 15 2.12106 13.595 2.04098 12.4593L1.56778 5.12845C1.54594 4.82998 1.7789 4.5679 2.07738 4.54606C2.38313 4.5315 2.63793 4.75718 2.65977 5.05565L3.13296 12.3865C3.21304 13.4931 3.24216 13.908 4.76366 13.908H9.43736C10.9661 13.908 10.9953 13.4931 11.0681 12.3865L11.5413 5.05565C11.5631 4.75718 11.8252 4.5315 12.1236 4.54606C12.4221 4.5679 12.6551 4.8227 12.6332 5.12845L12.16 12.4593C12.08 13.595 11.978 15 9.43736 15Z" fill="#999999"/>
<path d="M8.30898 10.9961H5.88477C5.58629 10.9961 5.33877 10.7485 5.33877 10.4501C5.33877 10.1516 5.58629 9.90407 5.88477 9.90407H8.30898C8.60745 9.90407 8.85497 10.1516 8.85497 10.4501C8.85497 10.7485 8.60745 10.9961 8.30898 10.9961Z" fill="#999999"/>
<path d="M8.92049 8.08409H5.28054C4.98206 8.08409 4.73454 7.83658 4.73454 7.5381C4.73454 7.23962 4.98206 6.99211 5.28054 6.99211H8.92049C9.21896 6.99211 9.46648 7.23962 9.46648 7.5381C9.46648 7.83658 9.21896 8.08409 8.92049 8.08409Z" fill="#999999"/>
</svg>
