<svg width="150" height="113" viewBox="0 0 150 113" fill="none" xmlns="http://www.w3.org/2000/svg">
<path d="M108.9 17.1548H17.3906C10.531 17.1548 5.46418 22.9731 7.01537 29.0598L14.4707 64.8606C15.5925 69.2565 19.8919 72.375 24.846 72.375L105.533 77.5962L119.297 29.0759C122.688 19.143 115.776 17.1548 108.9 17.1548Z" fill="#EBADB7" fill-opacity="0.54"/>
<path fill-rule="evenodd" clip-rule="evenodd" d="M64.076 70.3093C64.254 67.3043 66.8343 65.0124 69.8393 65.1904L101.409 67.0596C105.722 67.315 109.77 68.8355 112.807 71.3573C115.842 73.878 118.144 77.6952 117.874 82.2482C117.605 86.8004 114.869 90.3203 111.559 92.4665C108.246 94.614 104.046 95.6485 99.7313 95.393L24.7185 90.9515C21.7135 90.7735 19.4217 88.1932 19.5996 85.1882C19.7775 82.1832 22.3578 79.8913 25.3629 80.0693L100.376 84.5108C102.613 84.6433 104.461 84.076 105.629 83.3192C106.798 82.561 106.976 81.8739 106.992 81.6039C107.008 81.3347 106.913 80.6333 105.842 79.7438C104.772 78.8555 103.004 78.0745 100.765 77.9418L68.9403 74.9852C65.9353 74.8073 63.8981 73.3143 64.076 70.3093Z" fill="#EBADB7"/>
<path fill-rule="evenodd" clip-rule="evenodd" d="M113.158 4.54538C113.875 1.86451 116.304 0 119.079 0H143.871C147.257 0 150.001 2.74432 150.001 6.12962C150.001 9.51491 147.257 12.2592 143.871 12.2592H123.784L116.633 38.9899C115.758 42.2602 112.397 44.202 109.127 43.3271C105.857 42.4521 103.915 39.0917 104.79 35.8215L113.158 4.54538Z" fill="#EBADB7"/>
<path d="M42.2431 111.346C49.5365 112.114 56.0721 106.825 56.8406 99.5316C57.6091 92.2381 52.3197 85.7026 45.0262 84.9341C37.7328 84.1655 31.1973 89.455 30.4287 96.7484C29.6602 104.042 34.9497 110.577 42.2431 111.346Z" fill="#EBADB7"/>
<path d="M42.5684 104.758C46.2325 105.144 49.5159 102.487 49.902 98.8228C50.2882 95.1587 47.6308 91.8753 43.9666 91.4892C40.3024 91.103 37.019 93.7604 36.6329 97.4246C36.2468 101.089 38.9042 104.372 42.5684 104.758Z" fill="white"/>
<rect width="7.62421" height="134.246" rx="3.81211" transform="matrix(0.00661527 0.999978 -0.999997 0.00256955 137.174 18.5688)" fill="#EBADB7"/>
<rect y="15.6206" width="123.989" height="7.81031" rx="3.90515" fill="#C67D89"/>
<path d="M85.8806 112.396C93.2144 112.396 99.1597 106.451 99.1597 99.1169C99.1597 91.7831 93.2144 85.8379 85.8806 85.8379C78.5468 85.8379 72.6016 91.7831 72.6016 99.1169C72.6016 106.451 78.5468 112.396 85.8806 112.396Z" fill="#EBADB7"/>
<path d="M85.8334 105.811C89.5179 105.811 92.5047 102.824 92.5047 99.1396C92.5047 95.4551 89.5179 92.4683 85.8334 92.4683C82.1489 92.4683 79.1621 95.4551 79.1621 99.1396C79.1621 102.824 82.1489 105.811 85.8334 105.811Z" fill="white"/>
<mask id="mask0_1722_1269" style="mask-type:alpha" maskUnits="userSpaceOnUse" x="7" y="16" width="114" height="61">
<path d="M109.533 16.4375H18.0234C11.1639 16.4375 6.09699 22.2558 7.64818 28.3425L15.1036 64.1433C16.2254 68.5393 20.5247 71.6577 25.4788 71.6577L106.166 76.8789L119.93 28.3586C121.481 22.2558 116.409 16.4375 109.533 16.4375Z" fill="#C67D89"/>
</mask>
<g mask="url(#mask0_1722_1269)">
<rect width="7.62421" height="35.3936" rx="3.81211" transform="matrix(0.999966 0.00825468 -0.0123002 0.999924 70.8242 43.9321)" fill="#C67D89"/>
<rect width="7.62421" height="35.3936" rx="3.81211" transform="matrix(0.999966 0.00825468 -0.0123002 0.999924 92.373 44.0234)" fill="#C67D89"/>
<rect width="7.62421" height="35.3936" rx="3.81211" transform="matrix(0.999966 0.00825468 -0.0123002 0.999924 49.2773 43.8403)" fill="#C67D89"/>
<rect width="7.62421" height="35.3936" rx="3.81211" transform="matrix(0.999966 0.00825468 -0.0123002 0.999924 27.502 43.8403)" fill="#C67D89"/>
</g>
</svg>
