<svg width="24" height="24" viewBox="0 0 24 24" fill="none" xmlns="http://www.w3.org/2000/svg">
<path d="M11.9953 11.3045C11.9017 11.2952 11.7893 11.2952 11.6863 11.3045C9.45804 11.2296 7.68852 9.40395 7.68852 7.15695C7.68852 4.86314 9.54231 3 11.8455 3C14.1393 3 16.0025 4.86314 16.0025 7.15695C15.9931 9.40395 14.2236 11.2296 11.9953 11.3045Z" stroke="#D0657C" stroke-width="1.4" stroke-linecap="round" stroke-linejoin="round"/>
<path d="M6.87908 15.1155C4.40294 16.4304 4.40294 18.5732 6.87908 19.8799C9.69287 21.3734 14.3075 21.3734 17.1213 19.8799C19.5974 18.5651 19.5974 16.4223 17.1213 15.1155C14.3177 13.6302 9.7031 13.6302 6.87908 15.1155Z" stroke="#D0657C" stroke-width="1.4" stroke-linecap="round" stroke-linejoin="round"/>
</svg>
