<svg width="25" height="25" viewBox="0 0 25 25" fill="none" xmlns="http://www.w3.org/2000/svg">
<path d="M1.5 9.2V6.45C1.5 3.711 3.711 1.5 6.45 1.5H9.2M15.8 1.5C16.8739 1.5 18.55 1.5 18.55 1.5C21.289 1.5 23.5 3.711 23.5 6.45V9.2M23.5 16.9V18.55C23.5 21.289 21.289 23.5 18.55 23.5H16.9M9.2 23.5H6.45C3.711 23.5 1.5 21.289 1.5 18.55V15.8" stroke="white" stroke-width="1.3" stroke-linecap="round" stroke-linejoin="round"/>
<path d="M16.1141 6.18769C15.9544 6.12698 16.036 6.24221 16.0983 6.26357C16.5142 6.54324 17.5016 7.48786 18.1146 9.05733C18.7276 10.6268 18.154 12.3191 17.7918 12.9655C17.4022 13.6421 16.7016 14.4267 16.3844 14.8639C15.6305 15.9029 15.5804 17.1895 15.6316 17.4398C15.7426 17.9823 15.5398 17.4732 15.451 17.2222C14.985 15.9043 15.3901 15.3428 15.865 14.7352C16.34 14.1277 16.7893 13.3789 16.8473 13.2717C17.8888 11.2422 17.3386 10.4357 17.2864 10.1402C17.2343 9.8447 16.3475 8.18498 16.1535 7.89097C15.9983 7.65576 16.052 7.84813 16.0983 7.97372C16.6166 9.45056 17.0319 10.3839 17.0119 11.1109C16.979 12.3108 15.6264 14.3512 15.3296 14.8639C15.0922 15.274 15.0302 15.7632 15.0289 15.9566C14.9746 16.6107 15.3795 17.5884 15.7807 18.4383C15.8539 18.5933 15.9711 18.554 15.9993 18.4856C16.026 18.4211 15.9873 18.254 15.9691 18.1515C15.6548 16.3808 16.8553 15.0914 17.1025 14.7974C18.6848 13.1628 19.0058 11.8319 18.9997 10.79C18.9872 8.64115 17.5688 6.99608 16.1141 6.18769Z" fill="white"/>
<path d="M8.99637 16.3742C8.8582 16.2637 8.84669 16.3397 8.8582 16.3915C9.74938 17.559 10.0067 18.2913 10.0067 18.6712C10.0067 19.2153 9.74765 19.483 9.67856 19.552C9.57494 19.6557 9.60446 19.7507 9.69584 19.6902C10.1449 19.3931 10.2571 18.8411 10.2571 18.6021C10.2744 17.4364 9.2727 16.5555 8.99637 16.3742Z" fill="white"/>
<path d="M17.8649 14.9234C17.9738 14.8362 18.0698 14.9612 18.0203 15.0098C17.5541 15.4675 17.0791 16.1238 16.9581 16.6764C16.8882 16.996 16.9011 17.3845 16.9581 17.5141C17.0531 17.73 16.9238 17.7585 16.8546 17.7127C16.7895 17.6695 16.5956 17.1773 16.7163 16.6592C16.8978 15.787 17.6472 15.0665 17.8649 14.9234Z" fill="white"/>
<path d="M11.6993 9.82821C11.2157 10.3118 10.9652 11.4171 10.9134 11.9007C10.7131 10.2701 11.6302 9.24996 12.7528 8.55912C14.2813 7.71285 15.2338 6.65069 15.2743 5.97713C15.3175 5.26038 14.4223 4.31342 12.2692 4.52637C11.4834 4.60409 9.75283 5.14985 8.49551 7.05656C6.86341 9.82821 7.36139 11.0576 7.57152 11.8579C7.91693 13.0236 8.78911 14.1117 10.4644 16.0806C11.6561 17.6091 11.2848 18.7351 11.1984 18.9303C10.9998 19.3793 11.1984 18.8612 11.1811 18.369C11.1466 17.0737 9.89445 15.9597 9.55767 15.5884C7.89103 14.0081 7.27791 12.6782 7.01021 11.9007C6.6648 10.813 6.72698 8.86335 8.21918 6.83203C9.73039 4.82861 11.7827 4.36762 12.701 4.33606C15.9064 4.17717 15.9479 6.18438 15.3175 6.96987C14.0049 8.69696 13.0378 8.52425 11.6993 9.82821Z" fill="white"/>
<path d="M10.3348 12.1256C10.3348 12.1256 10.9824 13.0581 12.1741 13.6973C13.0291 14.1981 13.0896 14.1981 12.7528 14.1463C12.6405 14.129 12.4246 14.0725 12.3296 14.0426C11.2329 13.6973 10.4579 13.1874 9.92036 12.3069C9.44059 11.5211 9.41508 10.7093 9.58357 9.86307C9.96353 7.95464 10.8357 7.62649 11.2761 7.37613C11.9756 7.06526 12.9255 7.03928 12.2865 7.23791C11.587 7.47106 10.9221 8.02372 10.6026 8.36057C8.72866 10.1654 10.3003 12.0393 10.3348 12.1256Z" fill="white"/>
<path d="M11.5525 6.32256C9.46268 7.03931 8.7373 8.26554 8.4437 9.17226C8.14664 10.1187 8.41204 11.2937 8.58187 11.7629C9.09136 13.3 10.3349 14.4917 11.1725 15.1912C12.6319 16.5124 12.865 17.0737 12.865 17.54C12.865 18.7749 10.7839 20.312 10.6198 20.4501C10.1432 20.8094 10.4932 20.6545 10.7235 20.5365C13.3832 19.0443 13.4705 17.989 13.4177 17.2378C13.34 16.1324 11.7165 14.9321 10.5507 13.9822C9.63194 13.3121 9.0856 12.4595 8.92728 12.1169C8.74882 11.8118 8.43334 10.9684 8.59914 10.0358C8.80639 8.87002 9.55767 8.17918 9.85991 7.85103C10.1622 7.52289 11.3884 6.65935 12.3469 6.29666C13.3055 5.93397 13.0378 5.99442 12.5887 6.05487C12.2295 6.10322 11.7482 6.25348 11.5525 6.32256Z" fill="white"/>
<path d="M14.3503 15.9943C14.4022 16.6419 14.2035 16.2447 14.2035 15.977C13.9617 14.3449 14.2899 13.6627 14.5231 13.2395C14.8426 12.5919 15.8702 11.6765 15.9824 11.6247C16.1275 11.5833 15.945 11.832 15.8356 11.9615C14.9462 13.1014 14.7476 13.3863 14.5231 14.0254C14.3573 14.4744 14.3388 15.5279 14.3503 15.9943Z" fill="white"/>
<path d="M16.1141 6.18769C15.9544 6.12698 16.036 6.24221 16.0983 6.26357C16.5142 6.54324 17.5016 7.48786 18.1146 9.05733C18.7276 10.6268 18.154 12.3191 17.7918 12.9655C17.4022 13.6421 16.7016 14.4267 16.3844 14.8639C15.6305 15.9029 15.5804 17.1895 15.6316 17.4398C15.7426 17.9823 15.5398 17.4732 15.451 17.2222C14.985 15.9043 15.3901 15.3428 15.865 14.7352C16.34 14.1277 16.7893 13.3789 16.8473 13.2717C17.8888 11.2422 17.3386 10.4357 17.2864 10.1402C17.2343 9.8447 16.3475 8.18498 16.1535 7.89097C15.9983 7.65576 16.052 7.84813 16.0983 7.97372C16.6166 9.45056 17.0319 10.3839 17.0119 11.1109C16.979 12.3108 15.6264 14.3512 15.3296 14.8639C15.0922 15.274 15.0302 15.7632 15.0289 15.9566C14.9746 16.6107 15.3795 17.5884 15.7807 18.4383C15.8539 18.5933 15.9711 18.554 15.9993 18.4856C16.026 18.4211 15.9873 18.254 15.9691 18.1515C15.6548 16.3808 16.8553 15.0914 17.1025 14.7974C18.6848 13.1628 19.0058 11.8319 18.9997 10.79C18.9872 8.64115 17.5688 6.99608 16.1141 6.18769Z" stroke="white" stroke-width="0.2"/>
<path d="M8.99637 16.3742C8.8582 16.2637 8.84669 16.3397 8.8582 16.3915C9.74938 17.559 10.0067 18.2913 10.0067 18.6712C10.0067 19.2153 9.74765 19.483 9.67856 19.552C9.57494 19.6557 9.60446 19.7507 9.69584 19.6902C10.1449 19.3931 10.2571 18.8411 10.2571 18.6021C10.2744 17.4364 9.2727 16.5555 8.99637 16.3742Z" stroke="white" stroke-width="0.2"/>
<path d="M17.8649 14.9234C17.9738 14.8362 18.0698 14.9612 18.0203 15.0098C17.5541 15.4675 17.0791 16.1238 16.9581 16.6764C16.8882 16.996 16.9011 17.3845 16.9581 17.5141C17.0531 17.73 16.9238 17.7585 16.8546 17.7127C16.7895 17.6695 16.5956 17.1773 16.7163 16.6592C16.8978 15.787 17.6472 15.0665 17.8649 14.9234Z" stroke="white" stroke-width="0.2"/>
<path d="M11.6993 9.82821C11.2157 10.3118 10.9652 11.4171 10.9134 11.9007C10.7131 10.2701 11.6302 9.24996 12.7528 8.55912C14.2813 7.71285 15.2338 6.65069 15.2743 5.97713C15.3175 5.26038 14.4223 4.31342 12.2692 4.52637C11.4834 4.60409 9.75283 5.14985 8.49551 7.05656C6.86341 9.82821 7.36139 11.0576 7.57152 11.8579C7.91693 13.0236 8.78911 14.1117 10.4644 16.0806C11.6561 17.6091 11.2848 18.7351 11.1984 18.9303C10.9998 19.3793 11.1984 18.8612 11.1811 18.369C11.1466 17.0737 9.89445 15.9597 9.55767 15.5884C7.89103 14.0081 7.27791 12.6782 7.01021 11.9007C6.6648 10.813 6.72698 8.86335 8.21918 6.83203C9.73039 4.82861 11.7827 4.36762 12.701 4.33606C15.9064 4.17717 15.9479 6.18438 15.3175 6.96987C14.0049 8.69696 13.0378 8.52425 11.6993 9.82821Z" stroke="white" stroke-width="0.2"/>
<path d="M10.3348 12.1256C10.3348 12.1256 10.9824 13.0581 12.1741 13.6973C13.0291 14.1981 13.0896 14.1981 12.7528 14.1463C12.6405 14.129 12.4246 14.0725 12.3296 14.0426C11.2329 13.6973 10.4579 13.1874 9.92036 12.3069C9.44059 11.5211 9.41508 10.7093 9.58357 9.86307C9.96353 7.95464 10.8357 7.62649 11.2761 7.37613C11.9756 7.06526 12.9255 7.03928 12.2865 7.23791C11.587 7.47106 10.9221 8.02372 10.6026 8.36057C8.72866 10.1654 10.3003 12.0393 10.3348 12.1256Z" stroke="white" stroke-width="0.2"/>
<path d="M11.5525 6.32256C9.46268 7.03931 8.7373 8.26554 8.4437 9.17226C8.14664 10.1187 8.41204 11.2937 8.58187 11.7629C9.09136 13.3 10.3349 14.4917 11.1725 15.1912C12.6319 16.5124 12.865 17.0737 12.865 17.54C12.865 18.7749 10.7839 20.312 10.6198 20.4501C10.1432 20.8094 10.4932 20.6545 10.7235 20.5365C13.3832 19.0443 13.4705 17.989 13.4177 17.2378C13.34 16.1324 11.7165 14.9321 10.5507 13.9822C9.63194 13.3121 9.0856 12.4595 8.92728 12.1169C8.74882 11.8118 8.43334 10.9684 8.59914 10.0358C8.80639 8.87002 9.55767 8.17918 9.85991 7.85103C10.1622 7.52289 11.3884 6.65935 12.3469 6.29666C13.3055 5.93397 13.0378 5.99442 12.5887 6.05487C12.2295 6.10322 11.7482 6.25348 11.5525 6.32256Z" stroke="white" stroke-width="0.2"/>
<path d="M14.3503 15.9943C14.4022 16.6419 14.2035 16.2447 14.2035 15.977C13.9617 14.3449 14.2899 13.6627 14.5231 13.2395C14.8426 12.5919 15.8702 11.6765 15.9824 11.6247C16.1275 11.5833 15.945 11.832 15.8356 11.9615C14.9462 13.1014 14.7476 13.3863 14.5231 14.0254C14.3573 14.4744 14.3388 15.5279 14.3503 15.9943Z" stroke="white" stroke-width="0.2"/>
</svg>
